<svg width="153" height="71" viewBox="0 0 153 71" fill="none" xmlns="http://www.w3.org/2000/svg">
<path d="M118.79 17.4814C119.059 17.9766 119.405 18.4259 119.815 18.8125C120.851 19.7819 121.959 20.6718 123.13 21.4748L124.833 22.7127C125.872 23.4981 126.936 24.2302 127.855 24.8292L129.732 26.0672L130.131 26.3334C131.462 27.172 132.687 27.9973 133.938 28.8492C139.263 32.4832 141.925 38.42 140.953 43.9708C140.41 46.8284 138.985 49.4443 136.88 51.4517C134.575 53.6398 131.74 55.1903 128.654 55.9509C125.37 56.7177 122.001 57.0577 118.63 56.9626H117.073C116.487 56.9626 115.901 56.9626 115.316 56.9626C111.372 57.0376 107.429 56.8062 103.522 56.2704C103.202 56.2198 102.901 56.0857 102.65 55.8815C102.399 55.6773 102.206 55.4104 102.091 55.1077C101.977 54.805 101.944 54.4774 101.996 54.158C102.049 53.8385 102.185 53.5386 102.391 53.2887L110.763 43.0656C110.943 42.8531 111.167 42.6832 111.421 42.5681C111.674 42.453 111.949 42.3956 112.227 42.4001H115.262H117.206C119.809 42.5339 122.419 42.3551 124.98 41.8676C125.443 41.7446 125.89 41.5658 126.311 41.3352C126.125 41.1342 125.92 40.9514 125.699 40.7894C124.554 40.004 123.369 39.232 122.224 38.4866C121.079 37.7411 120.028 37.0623 118.896 36.2902C117.765 35.5182 116.953 34.9591 116.114 34.3201C115.649 33.9607 115.156 33.6147 114.677 33.2552C113.19 32.2291 111.763 31.118 110.404 29.9274C110.328 31.6332 110.024 33.321 109.499 34.9458L109.272 35.5847C106.374 42.5327 101.04 48.1842 94.2705 51.4783C85.5915 55.6181 72.826 56.0175 63.761 55.0058C63.5197 54.9811 63.2857 54.9084 63.0728 54.7922C62.86 54.6759 62.6724 54.5183 62.5212 54.3286C62.3699 54.139 62.2581 53.9211 62.1921 53.6876C62.1262 53.4542 62.1073 53.21 62.1369 52.9692V52.6764C62.1758 52.3253 62.3144 51.9928 62.5363 51.7179L70.8292 41.6014C70.9999 41.3923 71.2152 41.224 71.4594 41.1088C71.7035 40.9937 71.9704 40.9346 72.2403 40.9358H72.3601C78.856 40.9358 84.5399 40.004 87.9742 38.3668C90.9426 36.9425 94.6299 33.6147 95.6149 30.4998C95.804 30.0764 95.8895 29.614 95.864 29.151C95.8386 28.688 95.7029 28.2377 95.4685 27.8376C95.0958 27.1454 93.7248 25.2552 89.1989 22.4066C88.0275 21.6612 86.723 20.9157 85.3253 20.1969C82.663 18.8658 81.332 18.7327 80.4268 19.9041L78.0973 22.8592C73.2653 29.0223 68.2602 35.3984 62.9357 41.5615C62.2968 42.2936 61.6045 43.0257 61.0588 43.7711C59.0409 46.2711 56.8668 48.6408 54.5495 50.866L53.3248 51.9442C49.0433 55.6484 43.5582 57.6645 37.897 57.6148H37.0051C35.2709 57.5538 33.5463 57.331 31.8536 56.9493C28.3897 56.1429 25.0466 54.8854 21.9101 53.2088C19.3653 51.8679 16.8987 50.3835 14.5223 48.7629C14.0032 48.4035 13.4175 47.9908 12.8052 47.5249C7.70692 43.7179 1.38405 37.4217 0.172723 29.009C-0.197918 26.2302 0.0295177 23.4043 0.839914 20.7206C1.65031 18.0369 3.02491 15.5574 4.87158 13.4481C8.5336 9.12536 13.2726 5.84668 18.6089 3.94389C23.2166 2.27654 28.0405 1.2813 32.9319 0.988797C41.4778 0.37648 57.9971 2.1735 58.6893 2.31992C59.0197 2.35248 59.3348 2.47524 59.6001 2.6748C59.8653 2.87435 60.0706 3.143 60.1935 3.45138C60.317 3.75654 60.3562 4.08927 60.3071 4.41477C60.2579 4.74027 60.1221 5.04657 59.914 5.30164L51.6609 15.2718C51.4798 15.4928 51.2494 15.6682 50.9882 15.7838C50.7269 15.8994 50.442 15.952 50.1567 15.9373C40.6657 15.4981 21.3111 16.3367 16.0665 22.6861C15.5073 23.2319 15.0799 23.8981 14.817 24.6339C14.554 25.3697 14.4624 26.1558 14.5489 26.9324C14.9483 29.6878 17.6772 33.1221 21.8569 36.1438L22.6822 36.7162C25.1739 38.4561 27.8154 39.9707 30.5758 41.242C36.4061 43.9042 40.5193 43.7312 43.8871 40.856C46.0422 38.8887 48.0364 36.7521 49.8506 34.4666C50.4629 33.7345 51.1817 32.8958 51.8739 32.0839C56.8923 26.2802 61.7775 20.1037 66.5164 14.0604L67.1155 13.2884L68.9523 10.9456C70.7907 8.55469 73.2493 6.71319 76.0607 5.62111H76.1404C80.0986 4.25289 84.4095 4.30466 88.3337 5.76753C89.5902 6.18083 90.8139 6.68809 91.9943 7.28501C94.0803 8.367 96.1106 9.55319 98.0775 10.8391C100.28 12.2809 102.339 13.9302 104.227 15.7643C104.504 13.521 105.322 11.3785 106.61 9.5213C110.311 4.06369 116.101 1.38813 123.808 1.53456C126.496 1.62509 129.17 1.96375 131.795 2.54621C134.457 3.09197 136.933 3.78416 138.97 4.34323C140.461 4.75588 141.779 5.11528 142.963 5.3682C143.269 5.43772 143.552 5.58431 143.785 5.794C144.018 6.0037 144.193 6.26953 144.295 6.56621C144.398 6.86079 144.425 7.17707 144.371 7.48473C144.317 7.7924 144.186 8.08114 143.988 8.32329L136.401 17.5746C136.175 17.8473 135.875 18.0489 135.538 18.1551C135.2 18.2614 134.839 18.2678 134.497 18.1736C130.876 17.0499 127.138 16.3442 123.356 16.0704C120.174 16.0305 119.163 16.9889 118.79 17.4814Z" fill="white"/>
<path d="M43.0219 28.5836C43.0297 30.3287 42.3744 32.0115 41.1884 33.2916C40.0024 34.5717 38.3743 35.3534 36.6337 35.4785C34.8932 35.6037 33.1701 35.063 31.8131 33.9658C30.4561 32.8686 29.5667 31.2969 29.3247 29.5687C29.2822 29.242 29.2599 28.913 29.2581 28.5836C29.2557 26.819 29.9312 25.1209 31.1451 23.8402C32.359 22.5594 34.0184 21.7939 35.7807 21.7017H36.1401C37.9653 21.7017 39.7158 22.4268 41.0064 23.7174C42.297 25.008 43.0219 26.7584 43.0219 28.5836Z" fill="#0A4FE8"/>
<path d="M15.3213 64.1243C15.5554 63.7125 15.9016 63.3755 16.3196 63.1526C16.7257 62.922 17.1838 62.7983 17.6508 62.7932C18.1914 62.7849 18.7229 62.9328 19.1815 63.2192C19.635 63.4967 19.982 63.9187 20.1666 64.4172H19.1017C18.9727 64.1518 18.7692 63.9298 18.516 63.7783C18.2498 63.6363 17.9524 63.5631 17.6508 63.5653C17.3158 63.5594 16.9851 63.6421 16.6923 63.8049C16.4171 63.9734 16.1919 64.2123 16.0401 64.4971C15.8751 64.8226 15.7928 65.1838 15.8005 65.5486C15.7917 65.9136 15.874 66.2751 16.0401 66.6002C16.1842 66.8904 16.4112 67.1313 16.6923 67.2924C16.9815 67.4656 17.3138 67.5533 17.6508 67.5453C17.9532 67.5543 18.2523 67.4807 18.516 67.3324C18.777 67.1907 18.9832 66.9658 19.1017 66.6934H20.1666C19.982 67.192 19.635 67.6139 19.1815 67.8914C18.7229 68.1778 18.1914 68.3257 17.6508 68.3174C17.1832 68.3166 16.7241 68.1926 16.3196 67.958C15.9011 67.7297 15.5551 67.3884 15.3213 66.973C15.0656 66.5427 14.9364 66.049 14.9485 65.5486C14.9406 65.0488 15.0695 64.5563 15.3213 64.1243Z" fill="white"/>
<path d="M24.453 63.1929C24.8696 63.4056 25.2162 63.7337 25.4514 64.138C25.6994 64.5806 25.8236 65.0818 25.8108 65.5889C25.8269 66.088 25.7024 66.5816 25.4514 67.0132C25.2191 67.4166 24.8714 67.7411 24.453 67.945C23.9781 68.1658 23.4591 68.2751 22.9355 68.2645H21.1785V62.8601H22.9355C23.4601 62.8537 23.9792 62.9675 24.453 63.1929ZM24.453 67.0265C24.6311 66.8342 24.7678 66.6074 24.8548 66.3602C24.9418 66.1129 24.9773 65.8504 24.9588 65.5889C24.9759 65.3215 24.94 65.0533 24.8532 64.7998C24.7664 64.5462 24.6304 64.3123 24.453 64.1114C24.2602 63.9292 24.0317 63.789 23.7819 63.6996C23.5322 63.6102 23.2667 63.5737 23.0021 63.5923H22.1235V67.5856H23.0021C23.2585 67.5898 23.5131 67.5424 23.7509 67.4464C23.9887 67.3504 24.2048 67.2076 24.3864 67.0265H24.453Z" fill="white"/>
<path d="M27.4081 68.1312C27.1341 68.0182 26.8984 67.8287 26.7292 67.5854C26.5584 67.3497 26.4696 67.0644 26.4764 66.7734H27.4214C27.4397 66.9925 27.5394 67.1967 27.7009 67.3458C27.7952 67.4281 27.9052 67.4905 28.0241 67.5294C28.143 67.5682 28.2685 67.5828 28.3931 67.5721C28.6467 67.5923 28.8986 67.5163 29.0987 67.3591C29.1815 67.2884 29.2482 67.2007 29.2941 67.1019C29.3401 67.0032 29.3641 66.8956 29.3648 66.7867C29.371 66.621 29.3139 66.4592 29.2051 66.3341C29.0906 66.2202 28.9551 66.1298 28.8059 66.0679L28.1003 65.8549C27.8059 65.7816 27.5167 65.6882 27.235 65.5754C26.9927 65.4697 26.7874 65.2943 26.6452 65.0714C26.503 64.8486 26.4302 64.5884 26.4364 64.3241C26.4303 64.031 26.5139 63.7431 26.6761 63.4988C26.8361 63.2608 27.063 63.0755 27.3283 62.9664C27.6361 62.8385 27.9668 62.775 28.3 62.78C28.7774 62.7483 29.2501 62.8901 29.6312 63.1794C29.8014 63.3005 29.9407 63.4601 30.0379 63.6451C30.135 63.8301 30.1871 64.0354 30.1901 64.2443H29.2184C29.1881 64.0479 29.0891 63.8686 28.9389 63.7385C28.7415 63.5974 28.5024 63.5271 28.26 63.5388C28.0368 63.5311 27.8171 63.5965 27.6345 63.7251C27.5546 63.7939 27.4914 63.8801 27.4499 63.9769C27.4083 64.0738 27.3895 64.1789 27.3948 64.2842C27.3898 64.4353 27.442 64.5827 27.5412 64.6969C27.6541 64.803 27.7848 64.8886 27.9273 64.9498C28.1352 65.0316 28.3487 65.0983 28.5662 65.1494C28.9256 65.2559 29.2185 65.3491 29.4448 65.4423C29.6719 65.5467 29.8688 65.707 30.0171 65.9082C30.1889 66.1428 30.2737 66.4299 30.2567 66.7202C30.2539 66.9976 30.1756 67.2691 30.0304 67.5055C29.8749 67.7555 29.654 67.958 29.3915 68.0912C29.08 68.2396 28.738 68.3126 28.3931 68.3042C28.0566 68.3123 27.7218 68.2535 27.4081 68.1312Z" fill="white"/>
<path d="M33.9701 68.1312C33.6961 68.0182 33.4604 67.8287 33.2912 67.5854C33.1204 67.3497 33.0314 67.0644 33.0382 66.7734H33.9834C34.0017 66.9925 34.1014 67.1967 34.2629 67.3458C34.3572 67.4281 34.467 67.4905 34.5859 67.5294C34.7049 67.5682 34.8305 67.5828 34.9551 67.5721C35.2081 67.5873 35.4583 67.5118 35.6607 67.3591C35.7435 67.2884 35.81 67.2007 35.856 67.1019C35.9019 67.0032 35.9261 66.8956 35.9268 66.7867C35.933 66.621 35.8759 66.4592 35.7671 66.3341C35.6526 66.2202 35.5169 66.1298 35.3677 66.0679L34.7554 65.8549C34.4652 65.7818 34.1805 65.6884 33.9035 65.5754C33.6611 65.4697 33.4557 65.2943 33.3135 65.0714C33.1712 64.8486 33.0986 64.5884 33.1048 64.3241C33.0987 64.031 33.1822 63.7431 33.3443 63.4988C33.5043 63.2608 33.7315 63.0755 33.9967 62.9664C34.3045 62.8385 34.6352 62.775 34.9684 62.78C35.4458 62.7483 35.9185 62.8901 36.2996 63.1794C36.4641 63.306 36.5992 63.4667 36.6957 63.6505C36.7922 63.8344 36.8478 64.0369 36.8585 64.2443H35.8735C35.8637 64.1454 35.8338 64.0496 35.7858 63.9626C35.7377 63.8756 35.6725 63.7994 35.594 63.7385C35.3984 63.6034 35.1662 63.531 34.9285 63.531C34.6907 63.531 34.4586 63.6034 34.2629 63.7385C34.183 63.8072 34.12 63.8934 34.0785 63.9903C34.0369 64.0871 34.018 64.1922 34.0232 64.2975C34.0182 64.4486 34.0707 64.596 34.1698 64.7102C34.28 64.8198 34.4112 64.9059 34.5557 64.9631C34.7636 65.0449 34.9771 65.1116 35.1946 65.1628C35.554 65.2692 35.8469 65.3624 36.0732 65.4556C36.3004 65.56 36.4974 65.7203 36.6457 65.9215C36.8175 66.1561 36.9021 66.4432 36.8852 66.7335C36.8823 67.0109 36.8042 67.2824 36.659 67.5188C36.5035 67.7688 36.2824 67.9714 36.0199 68.1045C35.7085 68.253 35.3665 68.3259 35.0216 68.3175C34.6618 68.3305 34.3035 68.267 33.9701 68.1312Z" fill="white"/>
<path d="M39.2816 64.1116C39.7479 63.8734 40.2895 63.8292 40.7882 63.9888C41.287 64.1484 41.7024 64.4988 41.9439 64.9635C42.1237 65.318 42.215 65.7108 42.21 66.1083C42.2135 66.5098 42.1224 66.9066 41.9439 67.2663C41.7767 67.5904 41.5233 67.8622 41.2117 68.0517C40.9026 68.2383 40.5477 68.3351 40.1867 68.3312C39.888 68.3342 39.5926 68.2705 39.3216 68.1449C39.0805 68.0211 38.8673 67.8489 38.6958 67.639V70.3013H37.8174V63.9784H38.6958V64.6174C38.8546 64.4107 39.054 64.2386 39.2816 64.1116ZM41.0919 65.3362C40.9823 65.1332 40.8157 64.9667 40.6127 64.857C40.3122 64.6998 39.963 64.6633 39.6365 64.7548C39.3099 64.8463 39.0306 65.059 38.8555 65.3495C38.7329 65.5884 38.669 65.853 38.669 66.1216C38.669 66.3901 38.7329 66.6547 38.8555 66.8936C38.9642 67.1042 39.1303 67.2796 39.3347 67.3994C39.5297 67.51 39.7497 67.5695 39.9738 67.5725C40.1999 67.5705 40.421 67.506 40.6127 67.3861C40.8201 67.27 40.9872 67.0936 41.0919 66.8803C41.2145 66.6414 41.2785 66.3768 41.2785 66.1083C41.2785 65.8397 41.2145 65.5751 41.0919 65.3362Z" fill="white"/>
<path d="M42.9553 64.9634C43.1228 64.643 43.3762 64.3756 43.6873 64.1914C43.9917 64.0052 44.3423 63.9084 44.699 63.9118C45.0082 63.9039 45.3146 63.9725 45.5909 64.1115C45.8258 64.2274 46.0307 64.396 46.1899 64.604V63.9784H47.0818V68.2646H46.1899V67.6257C46.0264 67.8381 45.8171 68.011 45.5776 68.1315C45.3003 68.2675 44.9946 68.3359 44.6857 68.3311C44.3291 68.3332 43.9789 68.2365 43.674 68.0516C43.3664 67.8613 43.1177 67.5894 42.9553 67.2662C42.7707 66.9087 42.6791 66.5104 42.689 66.1082C42.6772 65.71 42.7691 65.3155 42.9553 64.9634ZM46.0035 65.3494C45.894 65.1429 45.7278 64.972 45.5243 64.8569C45.3371 64.7394 45.1197 64.6792 44.8987 64.6839C44.6733 64.6774 44.4511 64.7376 44.2598 64.8569C44.0568 64.9666 43.8903 65.1331 43.7806 65.3361C43.658 65.575 43.5939 65.8397 43.5939 66.1082C43.5939 66.3767 43.658 66.6413 43.7806 66.8802C43.8853 67.0935 44.0525 67.27 44.2598 67.3861C44.4515 67.506 44.6726 67.5705 44.8987 67.5724C45.1273 67.571 45.3511 67.5069 45.5459 67.3873C45.7407 67.2676 45.8989 67.0968 46.0035 66.8935C46.1261 66.6547 46.1902 66.39 46.1902 66.1215C46.1902 65.853 46.1261 65.5883 46.0035 65.3494Z" fill="white"/>
<path d="M48.1469 64.963C48.3117 64.6362 48.5715 64.3671 48.8923 64.191C49.2193 64.0007 49.5923 63.904 49.9706 63.9114C50.4437 63.8811 50.9131 64.0125 51.3017 64.2841C51.6526 64.5389 51.8985 64.9127 51.9938 65.3357H51.0354C50.9663 65.1363 50.8358 64.9639 50.6626 64.8432C50.4269 64.6916 50.1452 64.6285 49.8674 64.6651C49.5896 64.7017 49.3337 64.8355 49.1453 65.0429C48.9373 65.364 48.8265 65.7385 48.8265 66.1211C48.8265 66.5037 48.9373 66.8782 49.1453 67.1993C49.2499 67.3261 49.3824 67.4269 49.5325 67.4938C49.6826 67.5608 49.8461 67.5921 50.0104 67.5853C50.2308 67.6036 50.4511 67.5482 50.6366 67.4277C50.8221 67.3072 50.9624 67.1286 51.0354 66.9198H51.9938C51.8746 67.3319 51.6277 67.6955 51.2884 67.958C50.9012 68.2326 50.4307 68.3644 49.9572 68.3308C49.581 68.3358 49.2096 68.2442 48.8789 68.0645C48.5606 67.8792 48.302 67.6067 48.1336 67.2792C47.9591 66.918 47.8684 66.5221 47.8684 66.1211C47.8684 65.72 47.9591 65.3241 48.1336 64.963H48.1469Z" fill="white"/>
<path d="M56.6524 66.4542H53.3912C53.4076 66.769 53.5461 67.0651 53.7773 67.2795C54.0055 67.4882 54.3069 67.5983 54.6159 67.5856C54.8253 67.5997 55.0341 67.5501 55.2147 67.4431C55.3953 67.3362 55.5393 67.177 55.6276 66.9866H56.586C56.4569 67.3757 56.2104 67.7151 55.8804 67.9584C55.511 68.2175 55.0669 68.3485 54.6159 68.3311C54.2314 68.3343 53.8518 68.2429 53.511 68.0648C53.1917 67.8765 52.9296 67.6051 52.7523 67.2795C52.5689 66.921 52.4731 66.5241 52.4731 66.1214C52.4731 65.7187 52.5689 65.3218 52.7523 64.9633C52.917 64.6365 53.1769 64.3674 53.4977 64.1913C53.8386 63.9996 54.2249 63.9031 54.6159 63.9117C54.992 63.9084 55.3628 64 55.6941 64.178C56.0073 64.3519 56.2656 64.6101 56.4396 64.9234C56.6832 65.3943 56.7627 65.9329 56.6658 66.4542H56.6524ZM55.7607 65.7354C55.7641 65.5871 55.7349 65.4399 55.675 65.3042C55.6152 65.1685 55.5263 65.0475 55.4146 64.95C55.1733 64.7564 54.872 64.6528 54.5626 64.6572C54.2725 64.6478 53.9905 64.753 53.7773 64.95C53.5573 65.1561 53.42 65.4353 53.3912 65.7354H55.7607Z" fill="white"/>
<path d="M60.5397 69.1427H59.6611V62.0345H60.5397V69.1427Z" fill="white"/>
<path d="M67.4347 65.9484C67.6361 66.1913 67.7445 66.498 67.7408 66.8136C67.7453 67.0777 67.6712 67.3372 67.5278 67.559C67.3698 67.7853 67.1537 67.9647 66.9022 68.0781C66.6085 68.2063 66.2907 68.2699 65.9703 68.2645H63.8005V62.8601H65.8639C66.1888 62.852 66.5114 62.9156 66.8089 63.0465C67.052 63.1558 67.2596 63.331 67.408 63.5523C67.5514 63.7593 67.6258 64.0061 67.6209 64.2578C67.6269 64.5365 67.5377 64.8088 67.368 65.0299C67.1931 65.2433 66.9629 65.4045 66.7025 65.4958C66.9942 65.5507 67.2551 65.712 67.4347 65.9484ZM64.6925 65.1364H65.7841C66.0268 65.1514 66.2669 65.0807 66.4628 64.9367C66.5487 64.8693 66.6166 64.7819 66.6607 64.6821C66.7048 64.5823 66.7238 64.4731 66.7158 64.3643C66.7227 64.2556 66.7033 64.1469 66.6593 64.0472C66.6152 63.9476 66.5478 63.86 66.4628 63.7919C66.2669 63.6479 66.0268 63.5773 65.7841 63.5923H64.6925V65.1364ZM66.596 67.3327C66.681 67.2558 66.7478 67.161 66.7915 67.0551C66.8353 66.9492 66.8548 66.8348 66.8489 66.7204C66.8573 66.6025 66.8375 66.4843 66.7912 66.3755C66.7449 66.2667 66.6735 66.1705 66.5827 66.0948C66.3806 65.9295 66.1247 65.8442 65.8639 65.8552H64.6925V67.5457H65.8905C66.143 67.5565 66.3917 67.4814 66.596 67.3327Z" fill="white"/>
<path d="M70.0308 64.0978C70.2634 63.9711 70.5247 63.9069 70.7895 63.9114V64.8299H70.5766C70.2857 64.8098 69.9986 64.9055 69.778 65.0961C69.5785 65.3587 69.4836 65.686 69.5117 66.0146V68.2642H68.6331V63.978H69.5117V64.6036C69.6391 64.3938 69.8178 64.2198 70.0308 64.0978Z" fill="white"/>
<path d="M71.5082 64.9632C71.6765 64.6437 71.9295 64.3766 72.2394 64.1912C72.5493 64.0057 72.9042 63.909 73.2654 63.9116C73.5701 63.9053 73.8717 63.9739 74.1438 64.1113C74.3787 64.2272 74.5837 64.3957 74.7429 64.6038V63.9781H75.6347V68.2644H74.6896V67.6254C74.5261 67.8379 74.3169 68.0108 74.0773 68.1313C73.8005 68.2688 73.4945 68.3373 73.1854 68.3309C72.8328 68.3348 72.4864 68.2378 72.1871 68.0514C71.8755 67.8619 71.6221 67.5901 71.4549 67.266C71.2703 66.9085 71.1788 66.5102 71.1887 66.108C71.1932 65.705 71.3034 65.3103 71.5082 64.9632ZM74.5565 65.3492C74.4463 65.1476 74.2859 64.9779 74.0907 64.8567C73.8979 64.7408 73.6765 64.6809 73.4516 64.6837C73.2251 64.6883 73.0036 64.7506 72.8079 64.8647C72.6123 64.9788 72.449 65.141 72.3335 65.3359C72.2108 65.5748 72.1469 65.8394 72.1469 66.108C72.1469 66.3765 72.2108 66.6411 72.3335 66.88C72.4382 67.0933 72.6053 67.2697 72.8127 67.3858C73.0044 67.5057 73.2255 67.5702 73.4516 67.5722C73.6757 67.5692 73.8956 67.5097 74.0907 67.3991C74.2876 67.2743 74.4482 67.0998 74.5565 66.8933C74.6792 66.6544 74.7431 66.3898 74.7431 66.1213C74.7431 65.8527 74.6792 65.5881 74.5565 65.3492Z" fill="white"/>
<path d="M79.8009 64.1243C80.0697 64.2579 80.2856 64.4784 80.4133 64.75C80.5768 65.0517 80.6549 65.3922 80.6395 65.735V68.2641H79.7611V65.8548C79.7845 65.5369 79.6843 65.2222 79.4815 64.9763C79.3787 64.8738 79.256 64.7937 79.1209 64.7411C78.9857 64.6884 78.8411 64.6642 78.6961 64.6701C78.5511 64.6634 78.4062 64.6872 78.2709 64.7399C78.1356 64.7926 78.013 64.8731 77.9108 64.9763C77.8055 65.0955 77.7252 65.2348 77.6749 65.3857C77.6246 65.5367 77.6051 65.6962 77.6178 65.8548V68.2508H76.7261V63.9779H77.6178V64.5237C77.7669 64.3474 77.9534 64.2064 78.1636 64.111C78.3913 64.0154 78.6356 63.9657 78.8825 63.9646C79.1972 63.9409 79.5127 63.9958 79.8009 64.1243Z" fill="white"/>
<path d="M81.6645 64.9628C81.8364 64.6455 82.089 64.3792 82.3967 64.1907C82.7099 64.0024 83.0695 63.9056 83.4349 63.9112C83.7199 63.9156 84.0009 63.9791 84.2602 64.0975C84.5084 64.204 84.7276 64.3683 84.8993 64.5768V62.5135H85.8043V68.264H84.8993V67.625C84.7439 67.84 84.5381 68.0137 84.3002 68.1308C84.0281 68.2683 83.7265 68.3368 83.4217 68.3305C83.0607 68.3343 82.7058 68.2376 82.3967 68.051C82.0885 67.8574 81.836 67.5867 81.6645 67.2656C81.486 66.9059 81.3949 66.5091 81.3984 66.1075C81.3934 65.7101 81.4847 65.3173 81.6645 64.9628ZM84.7262 65.3488C84.5512 65.0583 84.2718 64.8456 83.9453 64.7541C83.6187 64.6625 83.2695 64.6991 82.969 64.8563C82.766 64.9659 82.5995 65.1325 82.4898 65.3355C82.3672 65.5744 82.3033 65.839 82.3033 66.1075C82.3033 66.3761 82.3672 66.6407 82.4898 66.8796C82.5946 67.0929 82.7617 67.2693 82.969 67.3854C83.1607 67.5053 83.3818 67.5698 83.6079 67.5718C83.8321 67.5688 84.052 67.5093 84.247 67.3987C84.4514 67.2789 84.6176 67.1035 84.7262 66.8929C84.8401 66.6514 84.8991 66.3878 84.8991 66.1208C84.8991 65.8539 84.8401 65.5903 84.7262 65.3488Z" fill="white"/>
<path d="M86.9357 63.1926C86.8346 63.0842 86.7786 62.9414 86.7786 62.7932C86.7786 62.645 86.8346 62.5023 86.9357 62.3939C86.9868 62.3391 87.0487 62.2954 87.1174 62.2655C87.1861 62.2356 87.2602 62.2201 87.3351 62.2201C87.41 62.2201 87.4841 62.2356 87.5528 62.2655C87.6215 62.2954 87.6834 62.3391 87.7345 62.3939C87.8386 62.5008 87.8968 62.6441 87.8968 62.7932C87.8968 62.9424 87.8386 63.0857 87.7345 63.1926C87.6834 63.2474 87.6215 63.2911 87.5528 63.321C87.4841 63.3509 87.41 63.3663 87.3351 63.3663C87.2602 63.3663 87.1861 63.3509 87.1174 63.321C87.0487 63.2911 86.9868 63.2474 86.9357 63.1926ZM87.7743 63.9247V68.2109H86.8826V63.9779L87.7743 63.9247Z" fill="white"/>
<path d="M91.9943 64.1243C92.264 64.2612 92.483 64.4803 92.6199 64.75C92.7769 65.0541 92.8548 65.3929 92.8462 65.735V68.2641H91.9676V65.8548C91.9803 65.6962 91.9609 65.5367 91.9106 65.3857C91.8603 65.2348 91.7801 65.0955 91.6748 64.9763C91.5726 64.8732 91.4499 64.7926 91.3146 64.7399C91.1793 64.6872 91.0345 64.6634 90.8895 64.6701C90.7447 64.6658 90.6005 64.6907 90.4656 64.7433C90.3306 64.7959 90.2077 64.8751 90.104 64.9763C89.8976 65.2209 89.7929 65.5353 89.8112 65.8548V68.2508H88.9326V63.9779H89.8112V64.5237C89.9653 64.3471 90.1562 64.2063 90.3703 64.111C90.598 64.0154 90.8421 63.9657 91.089 63.9646C91.3994 63.9409 91.7108 63.9958 91.9943 64.1243Z" fill="white"/>
<path d="M96.4399 64.1111C96.6748 64.227 96.8798 64.3956 97.039 64.6036V63.978H97.9308V68.3308C97.9369 68.6997 97.8548 69.0649 97.6912 69.3957C97.5229 69.6972 97.274 69.9461 96.9724 70.1145C96.6238 70.2974 96.2345 70.389 95.841 70.3807C95.3296 70.4029 94.8251 70.2581 94.4034 69.968C94.2175 69.8448 94.0612 69.6817 93.9461 69.4906C93.831 69.2995 93.7599 69.0852 93.7378 68.8632H94.6162C94.694 69.0911 94.8496 69.2843 95.0556 69.409C95.2934 69.5481 95.5656 69.6173 95.841 69.6086C95.9993 69.6167 96.1576 69.5926 96.3063 69.5376C96.4551 69.4827 96.5911 69.3982 96.7062 69.2892C96.9393 69.0262 97.0589 68.6816 97.039 68.3308V67.6253C96.8787 67.8408 96.6685 68.0144 96.4266 68.1311C96.1588 68.2674 95.8619 68.336 95.5615 68.3308C95.2005 68.3346 94.8455 68.2378 94.5365 68.0512C94.2249 67.8617 93.9715 67.59 93.8043 67.2659C93.6197 66.9083 93.5282 66.51 93.5381 66.1078C93.5263 65.7096 93.618 65.3152 93.8043 64.963C93.9726 64.6435 94.2256 64.3765 94.5355 64.191C94.8454 64.0055 95.2003 63.9088 95.5615 63.9114C95.8661 63.9067 96.1672 63.9752 96.4399 64.1111ZM96.8526 65.349C96.7432 65.1425 96.5769 64.9716 96.3734 64.8565C96.1863 64.739 95.9687 64.6788 95.7477 64.6835C95.5223 64.677 95.3001 64.7372 95.1088 64.8565C94.9058 64.9662 94.7392 65.1327 94.6296 65.3357C94.5069 65.5746 94.443 65.8393 94.443 66.1078C94.443 66.3763 94.5069 66.6409 94.6296 66.8798C94.7343 67.0931 94.9014 67.2696 95.1088 67.3857C95.3005 67.5056 95.5216 67.5701 95.7477 67.572C95.9763 67.5706 96.2003 67.5066 96.395 67.3869C96.5898 67.2672 96.7481 67.0964 96.8526 66.8931C96.9753 66.6543 97.0392 66.3896 97.0392 66.1211C97.0392 65.8526 96.9753 65.5879 96.8526 65.349Z" fill="white"/>
<path d="M104.227 67.1861H101.965L101.578 68.291H100.647L102.59 62.8866H103.615L105.545 68.291H104.613L104.227 67.1861ZM103.975 66.4673L103.096 63.9515L102.218 66.4673H103.975Z" fill="white"/>
<path d="M108.913 64.1113C109.15 64.2237 109.356 64.3929 109.512 64.6038V63.9781H110.417V68.3309C110.418 68.7009 110.332 69.066 110.164 69.3958C110.003 69.703 109.752 69.9537 109.445 70.1146C109.101 70.2959 108.716 70.3875 108.327 70.3809C107.812 70.4031 107.303 70.2584 106.876 69.9682C106.692 69.8442 106.538 69.6807 106.425 69.4895C106.312 69.2984 106.243 69.0845 106.224 68.8634H107.102C107.175 69.0903 107.326 69.2838 107.528 69.4091C107.772 69.5467 108.048 69.6158 108.327 69.6088C108.646 69.6191 108.957 69.5045 109.192 69.2893C109.421 69.0243 109.535 68.68 109.512 68.3309V67.6254C109.353 67.8377 109.148 68.0107 108.913 68.1313C108.613 68.2753 108.283 68.3433 107.951 68.3294C107.619 68.3155 107.296 68.22 107.009 68.0514C106.701 67.8578 106.449 67.5871 106.277 67.266C106.099 66.9063 106.007 66.5095 106.011 66.108C106.006 65.7105 106.097 65.3177 106.277 64.9632C106.449 64.6459 106.702 64.3796 107.009 64.1911C107.318 64.0046 107.673 63.9078 108.034 63.9116C108.339 63.9053 108.641 63.9739 108.913 64.1113ZM109.339 65.3492C109.164 65.0587 108.884 64.846 108.558 64.7545C108.231 64.663 107.882 64.6995 107.582 64.8567C107.379 64.9664 107.212 65.1329 107.102 65.3359C106.98 65.5748 106.916 65.8394 106.916 66.108C106.916 66.3765 106.98 66.6411 107.102 66.88C107.207 67.0933 107.374 67.2697 107.582 67.3858C107.773 67.5057 107.994 67.5702 108.22 67.5722C108.445 67.5692 108.665 67.5097 108.86 67.3991C109.064 67.2793 109.23 67.1039 109.339 66.8933C109.453 66.6519 109.512 66.3882 109.512 66.1213C109.512 65.8543 109.453 65.5907 109.339 65.3492Z" fill="white"/>
<path d="M115.396 66.4542H112.121C112.138 66.769 112.276 67.0651 112.507 67.2795C112.736 67.4882 113.037 67.5983 113.346 67.5856C113.555 67.5997 113.764 67.5501 113.945 67.4431C114.125 67.3362 114.269 67.177 114.358 66.9866H115.316C115.187 67.3757 114.94 67.7151 114.611 67.9584C114.223 68.232 113.753 68.3636 113.279 68.3311C112.895 68.3343 112.515 68.2429 112.175 68.0648C111.855 67.8765 111.593 67.6051 111.416 67.2795C111.224 66.9242 111.128 66.5251 111.136 66.1214C111.13 65.7195 111.221 65.322 111.402 64.9633C111.577 64.6389 111.84 64.371 112.161 64.1913C112.502 63.9996 112.888 63.9031 113.279 63.9117C113.655 63.9084 114.026 64 114.358 64.178C114.67 64.3484 114.925 64.6079 115.09 64.9234C115.276 65.2564 115.368 65.6337 115.356 66.0149C115.383 66.1597 115.397 66.3068 115.396 66.4542ZM114.504 65.7354C114.505 65.5875 114.474 65.4411 114.415 65.3058C114.355 65.1704 114.268 65.0492 114.158 64.95C113.917 64.7564 113.615 64.6528 113.306 64.6572C113.016 64.6478 112.734 64.753 112.521 64.95C112.301 65.1561 112.163 65.4353 112.135 65.7354H114.504Z" fill="white"/>
<path d="M119.283 64.1248C119.552 64.2616 119.771 64.4808 119.908 64.7504C120.072 65.0521 120.15 65.3927 120.135 65.7355V68.2646H119.256V65.8553C119.279 65.5374 119.179 65.2227 118.976 64.9767C118.874 64.8743 118.751 64.7942 118.616 64.7415C118.481 64.6888 118.336 64.6647 118.191 64.6706C118.044 64.6644 117.897 64.6884 117.76 64.7411C117.623 64.7937 117.498 64.8739 117.392 64.9767C117.19 65.2227 117.089 65.5374 117.113 65.8553V68.2513H116.221V63.9784H117.113V64.5241C117.259 64.3451 117.446 64.2036 117.659 64.1115C117.886 64.0159 118.13 63.9661 118.377 63.9651C118.688 63.9402 118.999 63.9951 119.283 64.1248Z" fill="white"/>
<path d="M121.159 64.963C121.328 64.639 121.587 64.3708 121.905 64.1909C122.237 64.0008 122.614 63.9042 122.996 63.9114C123.47 63.8777 123.94 64.0095 124.327 64.2841C124.678 64.5388 124.924 64.9127 125.02 65.3357H124.061C123.992 65.1362 123.862 64.9638 123.689 64.8432C123.5 64.7168 123.277 64.6518 123.049 64.6568C122.885 64.65 122.722 64.6813 122.572 64.7483C122.421 64.8153 122.289 64.9161 122.184 65.0428C121.968 65.3608 121.852 65.7365 121.852 66.121C121.852 66.5056 121.968 66.8813 122.184 67.1992C122.287 67.3285 122.419 67.431 122.57 67.4982C122.72 67.5654 122.885 67.5953 123.049 67.5853C123.268 67.6028 123.486 67.5469 123.67 67.4263C123.853 67.3057 123.991 67.1275 124.061 66.9197H125.02C124.906 67.3343 124.658 67.6995 124.314 67.958C123.927 68.2336 123.457 68.3654 122.983 68.3307C122.603 68.3357 122.227 68.2441 121.891 68.0645C121.576 67.8753 121.319 67.6038 121.146 67.2791C120.972 66.918 120.881 66.5221 120.881 66.121C120.881 65.72 120.972 65.3241 121.146 64.963H121.159Z" fill="white"/>
<path d="M129.626 63.9782L126.963 70.2745H126.045L126.91 68.1979L125.273 63.9782H126.258L127.456 67.2528L128.707 63.9782H129.626Z" fill="white"/>
<path d="M147.968 21.5953C146.969 21.5979 145.992 21.3039 145.16 20.7506C144.329 20.1972 143.68 19.4095 143.296 18.4871C142.913 17.5647 142.812 16.5492 143.006 15.5693C143.2 14.5895 143.681 13.6893 144.388 12.983C145.094 12.2766 145.994 11.7959 146.974 11.6016C147.954 11.4074 148.969 11.5084 149.892 11.8919C150.814 12.2754 151.602 12.9241 152.155 13.7558C152.709 14.5875 153.002 15.5647 153 16.5636C152.996 17.897 152.465 19.1748 151.522 20.1176C150.579 21.0605 149.302 21.5917 147.968 21.5953ZM147.968 11.9446C147.055 11.9446 146.162 12.2155 145.402 12.723C144.642 13.2306 144.05 13.952 143.701 14.796C143.351 15.64 143.26 16.5687 143.438 17.4647C143.616 18.3607 144.056 19.1838 144.702 19.8297C145.348 20.4757 146.171 20.9156 147.067 21.0939C147.963 21.2721 148.892 21.1806 149.736 20.831C150.58 20.4814 151.301 19.8894 151.809 19.1298C152.316 18.3702 152.587 17.4772 152.587 16.5636C152.587 15.3386 152.101 14.1637 151.234 13.2975C150.368 12.4312 149.193 11.9446 147.968 11.9446Z" fill="white"/>
<path d="M145.439 15.512H144.334V14.9396H147.223V15.512H146.118V18.7599H145.439V15.512Z" fill="white"/>
<path d="M147.808 14.9396H148.567L149.246 16.8032L149.485 17.5619C149.565 17.309 149.645 17.0428 149.725 16.8032L150.391 14.9396H151.163V18.7599H150.564V17.0162C150.564 16.6568 150.564 16.1509 150.644 15.7915L150.324 16.6834L149.698 18.4005H149.299L148.673 16.6834L148.367 15.7915C148.367 16.1509 148.447 16.6568 148.447 17.0162V18.7599H147.848L147.808 14.9396Z" fill="white"/>
</svg>
